:SAMPLES-PER-SECOND 30
:FULLY-SPECIFIED
:DEGREES
66
root  7.08597 39.2296 4.77697 -135.469 84.5755 -135.867
RightUpLeg  -3.79992 3.50439 9.56209
RightLeg  14.5937 5.0401 -1.40005
RightFoot  -8.0802 0.218198 -4.97507
RightToes  -4.07455e-010 -1.59028e-015 9.93923e-017
Spine  -1.6039 1.93582 11.8319
Spine1  8.38622 3.30415 -4.13822
HEad  -16.0094 -4.10639 4.59353
LeftShoulder1  9.93923e-017 0 1.22299e-017
LeftArm  20.2394 53.8722 -70.5226
LeftForeArm  -16.7211 -12.2032 -5.15843
LeftHand  1.04618 7.89021 -9.31316
RightShoulder  1.98785e-016 -4.96962e-017 1.55301e-017
RightArm  25.4141 -18.1216 81.0238
RightForeArm  -45.1427 23.5048 -22.4247
RightHand  1.61037 -12.4072 -8.6075
LeftUpLeg  -23.3086 -6.93513 4.10349
LeftLeg  47.9751 -8.6212 3.31503
LeftFoot  9.44636 1.18009 -5.69802
LeftToes  -3.15592e-010 -1.11882e-010 -6.33042e-011
67
root  8.81787 39.2648 4.77614 -126.072 85.6573 -126.132
RightUpLeg  -0.00713202 2.39005 8.99992
RightLeg  13.3746 7.61035 -0.429005
RightFoot  -8.62768 0.193523 -4.95403
RightToes  -4.07455e-010 -1.59028e-015 9.93923e-017
Spine  -1.11725 2.90008 13.746
Spine1  8.04624 4.75328 -6.87591
HEad  -16.2446 -5.14502 4.53014
LeftShoulder1  9.93923e-017 0 1.22299e-017
LeftArm  22.769 56.5112 -64.9074
LeftForeArm  -16.3453 -12.6648 -4.57289
LeftHand  1.06368 8.46835 -10.72
RightShoulder  1.98785e-016 -4.96962e-017 1.55301e-017
RightArm  21.7783 -14.6517 79.2451
RightForeArm  -42.1052 26.3641 -24.3781
RightHand  1.56989 -12.2842 -8.24472
LeftUpLeg  -25.245 -5.93904 3.34577
LeftLeg  39.0345 -8.00744 2.45653
LeftFoot  7.55792 1.21844 -6.46242
LeftToes  -3.15592e-010 -1.11882e-010 -6.33042e-011
68
root  10.5278 39.2041 4.79729 -109.216 86.6317 -109.265
RightUpLeg  3.39708 1.97099 8.48407
RightLeg  12.233 9.58544 -0.0113015
RightFoot  -9.49608 0.161818 -5.16151
RightToes  -4.07455e-010 -1.59028e-015 9.93923e-017
Spine  -1.32131 3.81724 14.3521
Spine1  8.53802 5.83389 -8.35469
HEad  -16.8165 -5.86402 4.41173
LeftShoulder1  9.93923e-017 0 1.22299e-017
LeftArm  21.0888 58.396 -60.0889
LeftForeArm  -14.1863 -11.6523 -4.77112
LeftHand  1.07705 8.76265 -10.8213
RightShoulder  1.98785e-016 -4.96962e-017 1.55301e-017
RightArm  20.1249 -10.7391 77.5731
RightForeArm  -40.0771 28.5439 -26.005
RightHand  1.54732 -12.2366 -7.9694
LeftUpLeg  -26.0802 -5.36833 2.81017
LeftLeg  27.1576 -7.43798 1.23687
LeftFoot  7.33745 1.18804 -6.36464
LeftToes  -3.15592e-010 -1.11882e-010 -6.33042e-011
69
root  12.2203 39.0882 4.84116 -92.8277 87.2932 -93.1665
RightUpLeg  6.77275 1.6189 7.80577
RightLeg  10.4671 10.656 0.238347
RightFoot  -10.5107 0.112879 -5.02197
RightToes  -4.07455e-010 -1.59028e-015 9.93923e-017
Spine  -2.2273 4.40284 13.6066
Spine1  9.71496 6.35223 -8.65878
HEad  -17.4372 -6.11326 4.27548
LeftShoulder1  9.93923e-017 0 1.22299e-017
LeftArm  16.1078 59.8915 -56.349
LeftForeArm  -10.1349 -9.35263 -5.33806
LeftHand  1.08317 8.62898 -9.85072
RightShoulder  1.98785e-016 -4.96962e-017 1.55301e-017
RightArm  19.4519 -6.97734 76.3681
RightForeArm  -38.4225 29.9171 -27.0993
RightHand  1.56251 -12.2279 -8.28462
LeftUpLeg  -26.3612 -6.0629 2.52321
LeftLeg  13.6873 -6.24406 0.308647
LeftFoot  7.62354 1.11069 -5.85185
LeftToes  -3.15592e-010 -1.11882e-010 -6.33042e-011
70
root  13.9448 38.8381 4.8642 -86.1204 87.4946 -86.5274
RightUpLeg  10.0673 1.07124 7.29329
RightLeg  9.4777 11.3125 0.532691
RightFoot  -11.7025 0.0524105 -4.28519
RightToes  -4.07455e-010 -1.59028e-015 9.93923e-017
Spine  -2.56767 4.35972 12.9244
Spine1  10.5234 6.35971 -8.74544
HEad  -18.0026 -5.85895 4.1355
LeftShoulder1  9.93923e-017 0 1.22299e-017
LeftArm  10.7214 60.8622 -53.7095
LeftForeArm  -6.40155 -6.3345 -5.89477
LeftHand  1.09653 8.5168 -8.23923
RightShoulder  1.98785e-016 -4.96962e-017 1.55301e-017
RightArm  18.8454 -4.10217 75.8959
RightForeArm  -36.9024 30.6271 -27.7237
RightHand  1.61348 -12.2832 -9.06569
LeftUpLeg  -26.3953 -4.26566 0.807168
LeftLeg  2.0908 -7.14253 0.433268
LeftFoot  6.19141 1.14121 -6.49816
LeftToes  -3.15592e-010 -1.11882e-010 -6.33042e-011
71
root  15.7387 38.4719 4.83487 -84.8422 87.3976 -85.1103
RightUpLeg  13.0671 0.667282 7.08791
RightLeg  9.81278 12.1524 0.665333
RightFoot  -12.6124 0.014294 -3.48569
RightToes  -4.07455e-010 -1.59028e-015 9.93923e-017
Spine  -2.30415 3.94645 13.0282
Spine1  10.9504 6.25358 -9.44797
HEad  -18.6162 -5.30339 4.17285
LeftShoulder1  9.93923e-017 0 1.22299e-017
LeftArm  6.06368 60.7276 -52.4158
LeftForeArm  -3.91423 -3.27152 -6.2448
LeftHand  1.13161 8.68698 -6.57016
RightShoulder  1.98785e-016 -4.96962e-017 1.55301e-017
RightArm  17.7427 -2.5486 76.1924
RightForeArm  -35.7669 30.9033 -28.0056
RightHand  1.68582 -12.4408 -9.8757
LeftUpLeg  -27.1839 -3.82446 0.106644
LeftLeg  -2.73982 -5.78266 -0.0745286
LeftFoot  3.19731 1.09434 -7.44148
LeftToes  -3.15592e-010 -1.11882e-010 -6.33042e-011
72
root  17.6657 38.0435 4.7655 -75.009 87.5412 -75.5048
RightUpLeg  15.4172 0.484957 6.4055
RightLeg  11.145 13.4344 0.808712
RightFoot  -13.2154 -0.00156619 -2.47539
RightToes  -4.07455e-010 -1.59028e-015 9.93923e-017
Spine  -2.82507 3.73831 13.0888
Spine1  11.9289 6.47401 -10.6181
HEad  -19.3389 -4.67282 4.73323
LeftShoulder1  9.93923e-017 0 1.22299e-017
LeftArm  1.49288 59.387 -52.5685
LeftForeArm  -1.10031 -2.15368 -5.79012
LeftHand  1.17874 9.03895 -5.52908
RightShoulder  1.98785e-016 -4.96962e-017 1.55301e-017
RightArm  16.1806 -2.70324 77.1406
RightForeArm  -35.5061 31.0002 -28.0961
RightHand  1.76258 -12.6399 -10.582
LeftUpLeg  -28.8779 -4.20145 -0.490619
LeftLeg  -0.34637 -4.08014 -0.0463149
LeftFoot  2.11444 0.921397 -6.63694
LeftToes  -3.15592e-010 -1.11882e-010 -6.33042e-011
